<svg viewBox="0 0 441.92 81.65" xmlns="http://www.w3.org/2000/svg" xmlns:xlink="http://www.w3.org/1999/xlink" id="Ebene_1" overflow="hidden"><defs></defs><path d="M62.83 80.73C62.83 81.2381 62.4181 81.65 61.91 81.65 61.4019 81.65 60.99 81.2381 60.99 80.73 60.99 80.2219 61.4019 79.81 61.91 79.81 62.4181 79.81 62.83 80.2219 62.83 80.73" fill="#FFFFFF"/><path d="M82.78 80.73C82.78 81.2381 82.3681 81.65 81.86 81.65 81.3519 81.65 80.94 81.2381 80.94 80.73 80.94 80.2219 81.3519 79.81 81.86 79.81 82.3681 79.81 82.78 80.2219 82.78 80.73" fill="#FFFFFF"/><path d="M102.74 80.73C102.746 81.2436 102.334 81.6644 101.82 81.67 101.306 81.6755 100.886 81.2636 100.88 80.75 100.875 80.2364 101.286 79.8156 101.8 79.8101 101.803 79.81 101.807 79.81 101.81 79.81 102.32 79.81 102.735 80.2203 102.74 80.73" fill="#FFFFFF"/><path d="M122.69 80.73C122.696 81.2436 122.284 81.6644 121.77 81.67 121.256 81.6755 120.836 81.2636 120.83 80.75 120.825 80.2364 121.236 79.8156 121.75 79.8101 121.753 79.81 121.757 79.81 121.76 79.81 122.27 79.81 122.685 80.2203 122.69 80.73" fill="#FFFFFF"/><path d="M142.64 80.73C142.64 81.2381 142.228 81.65 141.72 81.65 141.212 81.65 140.8 81.2381 140.8 80.73 140.8 80.2219 141.212 79.81 141.72 79.81 142.228 79.81 142.64 80.2219 142.64 80.73" fill="#FFFFFF"/><path d="M162.59 80.73C162.59 81.2381 162.178 81.65 161.67 81.65 161.162 81.65 160.75 81.2381 160.75 80.73 160.75 80.2219 161.162 79.81 161.67 79.81 162.178 79.81 162.59 80.2219 162.59 80.73" fill="#FFFFFF"/><path d="M182.54 80.73C182.54 81.2381 182.128 81.65 181.62 81.65 181.112 81.65 180.7 81.2381 180.7 80.73 180.7 80.2219 181.112 79.81 181.62 79.81 182.128 79.81 182.54 80.2219 182.54 80.73" fill="#FFFFFF"/><path d="M202.5 80.73C202.506 81.2436 202.094 81.6644 201.58 81.67 201.066 81.6755 200.646 81.2636 200.64 80.75 200.635 80.2364 201.046 79.8156 201.56 79.8101 201.563 79.81 201.567 79.81 201.57 79.81 202.08 79.81 202.495 80.2203 202.5 80.73" fill="#FFFFFF"/><path d="M222.45 80.73C222.455 81.2436 222.044 81.6644 221.53 81.6699 221.016 81.6754 220.596 81.2635 220.59 80.7499 220.585 80.2363 220.997 79.8155 221.51 79.81 221.517 79.8099 221.523 79.8099 221.53 79.81 222.038 79.81 222.45 80.2219 222.45 80.73" fill="#FFFFFF"/><path d="M242.4 80.73C242.4 81.2381 241.988 81.65 241.48 81.65 240.972 81.65 240.56 81.2381 240.56 80.73 240.56 80.2219 240.972 79.81 241.48 79.81 241.988 79.81 242.4 80.2219 242.4 80.73" fill="#FFFFFF"/><path d="M262.35 80.73C262.35 81.2381 261.938 81.65 261.43 81.65 260.922 81.65 260.51 81.2381 260.51 80.73 260.51 80.2219 260.922 79.81 261.43 79.81 261.938 79.81 262.35 80.2219 262.35 80.73" fill="#FFFFFF"/><path d="M282.31 80.73C282.316 81.2436 281.904 81.6644 281.39 81.67 280.876 81.6755 280.456 81.2636 280.45 80.75 280.445 80.2364 280.856 79.8156 281.37 79.8101 281.373 79.81 281.377 79.81 281.38 79.81 281.89 79.81 282.305 80.2203 282.31 80.73" fill="#FFFFFF"/><path d="M302.26 80.73C302.266 81.2436 301.854 81.6644 301.34 81.6699 300.826 81.6754 300.406 81.2635 300.4 80.7499 300.395 80.2363 300.807 79.8155 301.32 79.81 301.327 79.8099 301.333 79.8099 301.34 79.81 301.848 79.81 302.26 80.2219 302.26 80.73" fill="#FFFFFF"/><path d="M322.21 80.73C322.21 81.2381 321.798 81.65 321.29 81.65 320.782 81.65 320.37 81.2381 320.37 80.73 320.37 80.2219 320.782 79.81 321.29 79.81 321.798 79.81 322.21 80.2219 322.21 80.73" fill="#FFFFFF"/><path d="M342.16 80.73C342.16 81.2381 341.748 81.65 341.24 81.65 340.732 81.65 340.32 81.2381 340.32 80.73 340.32 80.2219 340.732 79.81 341.24 79.81 341.748 79.81 342.16 80.2219 342.16 80.73" fill="#FFFFFF"/><path d="M362.12 80.73C362.126 81.2436 361.714 81.6644 361.2 81.67 360.686 81.6755 360.266 81.2636 360.26 80.75 360.255 80.2364 360.666 79.8156 361.18 79.8101 361.183 79.81 361.187 79.81 361.19 79.81 361.7 79.81 362.115 80.2203 362.12 80.73" fill="#FFFFFF"/><path d="M382.07 80.73C382.076 81.2436 381.664 81.6644 381.15 81.67 380.636 81.6755 380.216 81.2636 380.21 80.75 380.205 80.2364 380.616 79.8156 381.13 79.8101 381.133 79.81 381.137 79.81 381.14 79.81 381.65 79.81 382.065 80.2203 382.07 80.73" fill="#FFFFFF"/><path d="M402 80.73C402.005 81.2436 401.594 81.6644 401.08 81.6699 400.566 81.6754 400.146 81.2635 400.14 80.7499 400.135 80.2363 400.547 79.8155 401.06 79.81 401.067 79.8099 401.073 79.8099 401.08 79.81 401.588 79.81 402 80.2219 402 80.73" fill="#FFFFFF"/><path d="M422 80.73C422 81.2381 421.588 81.65 421.08 81.65 420.572 81.65 420.16 81.2381 420.16 80.73 420.16 80.2219 420.572 79.81 421.08 79.81 421.588 79.81 422 80.2219 422 80.73" fill="#FFFFFF"/><path d="M441.92 80.73C441.92 81.2381 441.508 81.65 441 81.65 440.492 81.65 440.08 81.2381 440.08 80.73 440.08 80.2219 440.492 79.81 441 79.81 441.508 79.81 441.92 80.2219 441.92 80.73" fill="#FFFFFF"/><path d="M62.83 60.78C62.83 61.2881 62.4181 61.7 61.91 61.7 61.4019 61.7 60.99 61.2881 60.99 60.78 60.99 60.2719 61.4019 59.86 61.91 59.86 62.4181 59.86 62.83 60.2719 62.83 60.78" fill="#FFFFFF"/><path d="M82.78 60.78C82.78 61.2881 82.3681 61.7 81.86 61.7 81.3519 61.7 80.94 61.2881 80.94 60.78 80.94 60.2719 81.3519 59.86 81.86 59.86 82.3681 59.86 82.78 60.2719 82.78 60.78" fill="#FFFFFF"/><path d="M102.74 60.78C102.746 61.2936 102.334 61.7144 101.82 61.7199 101.306 61.7255 100.886 61.3136 100.88 60.8 100.875 60.2864 101.286 59.8656 101.8 59.8601 101.803 59.86 101.807 59.86 101.81 59.86 102.32 59.86 102.735 60.2703 102.74 60.78" fill="#FFFFFF"/><path d="M122.69 60.78C122.696 61.2936 122.284 61.7144 121.77 61.7199 121.256 61.7255 120.836 61.3136 120.83 60.8 120.825 60.2864 121.236 59.8656 121.75 59.8601 121.753 59.86 121.757 59.86 121.76 59.86 122.27 59.86 122.685 60.2703 122.69 60.78" fill="#FFFFFF"/><path d="M142.64 60.78C142.64 61.2881 142.228 61.7 141.72 61.7 141.212 61.7 140.8 61.2881 140.8 60.78 140.8 60.2719 141.212 59.86 141.72 59.86 142.228 59.86 142.64 60.2719 142.64 60.78" fill="#FFFFFF"/><path d="M162.59 60.78C162.59 61.2881 162.178 61.7 161.67 61.7 161.162 61.7 160.75 61.2881 160.75 60.78 160.75 60.2719 161.162 59.86 161.67 59.86 162.178 59.86 162.59 60.2719 162.59 60.78" fill="#FFFFFF"/><path d="M182.54 60.78C182.54 61.2881 182.128 61.7 181.62 61.7 181.112 61.7 180.7 61.2881 180.7 60.78 180.7 60.2719 181.112 59.86 181.62 59.86 182.128 59.86 182.54 60.2719 182.54 60.78" fill="#FFFFFF"/><path d="M202.5 60.78C202.506 61.2936 202.094 61.7144 201.58 61.7199 201.066 61.7255 200.646 61.3136 200.64 60.8 200.635 60.2864 201.046 59.8656 201.56 59.8601 201.563 59.86 201.567 59.86 201.57 59.86 202.08 59.86 202.495 60.2703 202.5 60.78" fill="#FFFFFF"/><path d="M222.45 60.78C222.455 61.2936 222.044 61.7144 221.53 61.7199 221.016 61.7254 220.596 61.3135 220.59 60.7999 220.585 60.2863 220.997 59.8655 221.51 59.86 221.517 59.8599 221.523 59.8599 221.53 59.86 222.038 59.86 222.45 60.2719 222.45 60.78" fill="#FFFFFF"/><path d="M242.4 60.78C242.4 61.2881 241.988 61.7 241.48 61.7 240.972 61.7 240.56 61.2881 240.56 60.78 240.56 60.2719 240.972 59.86 241.48 59.86 241.988 59.86 242.4 60.2719 242.4 60.78" fill="#FFFFFF"/><path d="M262.35 60.78C262.35 61.2881 261.938 61.7 261.43 61.7 260.922 61.7 260.51 61.2881 260.51 60.78 260.51 60.2719 260.922 59.86 261.43 59.86 261.938 59.86 262.35 60.2719 262.35 60.78" fill="#FFFFFF"/><path d="M282.31 60.78C282.316 61.2936 281.904 61.7144 281.39 61.7199 280.876 61.7255 280.456 61.3136 280.45 60.8 280.445 60.2864 280.856 59.8656 281.37 59.8601 281.373 59.86 281.377 59.86 281.38 59.86 281.89 59.86 282.305 60.2703 282.31 60.78" fill="#FFFFFF"/><path d="M302.26 60.78C302.266 61.2936 301.854 61.7144 301.34 61.7199 300.826 61.7254 300.406 61.3135 300.4 60.7999 300.395 60.2863 300.807 59.8655 301.32 59.86 301.327 59.8599 301.333 59.8599 301.34 59.86 301.848 59.86 302.26 60.2719 302.26 60.78" fill="#FFFFFF"/><path d="M322.21 60.78C322.21 61.2881 321.798 61.7 321.29 61.7 320.782 61.7 320.37 61.2881 320.37 60.78 320.37 60.2719 320.782 59.86 321.29 59.86 321.798 59.86 322.21 60.2719 322.21 60.78" fill="#FFFFFF"/><path d="M342.16 60.78C342.16 61.2881 341.748 61.7 341.24 61.7 340.732 61.7 340.32 61.2881 340.32 60.78 340.32 60.2719 340.732 59.86 341.24 59.86 341.748 59.86 342.16 60.2719 342.16 60.78" fill="#FFFFFF"/><path d="M362.12 60.78C362.126 61.2936 361.714 61.7144 361.2 61.7199 360.686 61.7255 360.266 61.3136 360.26 60.8 360.255 60.2864 360.666 59.8656 361.18 59.8601 361.183 59.86 361.187 59.86 361.19 59.86 361.7 59.86 362.115 60.2703 362.12 60.78" fill="#FFFFFF"/><path d="M382.07 60.78C382.076 61.2936 381.664 61.7144 381.15 61.7199 380.636 61.7255 380.216 61.3136 380.21 60.8 380.205 60.2864 380.616 59.8656 381.13 59.8601 381.133 59.86 381.137 59.86 381.14 59.86 381.65 59.86 382.065 60.2703 382.07 60.78" fill="#FFFFFF"/><path d="M402 60.78C402.005 61.2936 401.594 61.7144 401.08 61.7199 400.566 61.7254 400.146 61.3135 400.14 60.7999 400.135 60.2863 400.547 59.8655 401.06 59.86 401.067 59.8599 401.073 59.8599 401.08 59.86 401.588 59.86 402 60.2719 402 60.78" fill="#FFFFFF"/><path d="M422 60.78C422 61.2881 421.588 61.7 421.08 61.7 420.572 61.7 420.16 61.2881 420.16 60.78 420.16 60.2719 420.572 59.86 421.08 59.86 421.588 59.86 422 60.2719 422 60.78" fill="#FFFFFF"/><path d="M441.92 60.78C441.92 61.2881 441.508 61.7 441 61.7 440.492 61.7 440.08 61.2881 440.08 60.78 440.08 60.2719 440.492 59.86 441 59.86 441.508 59.86 441.92 60.2719 441.92 60.78" fill="#FFFFFF"/><path d="M62.83 40.83C62.8245 41.3381 62.4081 41.7455 61.9001 41.7399 61.392 41.7344 60.9846 41.3181 60.9901 40.81 60.9956 40.3059 61.4058 39.9 61.91 39.9 62.4181 39.9 62.83 40.3118 62.8301 40.8199 62.8301 40.8233 62.83 40.8266 62.83 40.83" fill="#FFFFFF"/><path d="M82.78 40.83C82.7745 41.3381 82.3581 41.7455 81.8501 41.7399 81.342 41.7344 80.9346 41.3181 80.9401 40.81 80.9456 40.3059 81.3558 39.9 81.86 39.9 82.3681 39.9 82.78 40.3118 82.7801 40.8199 82.7801 40.8233 82.78 40.8266 82.78 40.83" fill="#FFFFFF"/><path d="M102.74 40.83C102.74 41.3436 102.324 41.76 101.81 41.76 101.296 41.76 100.88 41.3436 100.88 40.83 100.88 40.3164 101.296 39.9 101.81 39.9 102.324 39.9 102.74 40.3164 102.74 40.83" fill="#FFFFFF"/><path d="M122.69 40.83C122.69 41.3436 122.274 41.76 121.76 41.76 121.246 41.76 120.83 41.3436 120.83 40.83 120.83 40.3164 121.246 39.9 121.76 39.9 122.274 39.9 122.69 40.3164 122.69 40.83" fill="#FFFFFF"/><path d="M142.64 40.83C142.634 41.3381 142.218 41.7455 141.71 41.7399 141.202 41.7344 140.795 41.3181 140.8 40.81 140.806 40.3059 141.216 39.9 141.72 39.9 142.228 39.9 142.64 40.3118 142.64 40.8199 142.64 40.8233 142.64 40.8266 142.64 40.83" fill="#FFFFFF"/><path d="M162.59 40.83C162.584 41.3381 162.168 41.7455 161.66 41.7399 161.152 41.7344 160.745 41.3181 160.75 40.81 160.756 40.3059 161.166 39.9 161.67 39.9 162.178 39.9 162.59 40.3118 162.59 40.8199 162.59 40.8233 162.59 40.8266 162.59 40.83" fill="#FFFFFF"/><path d="M182.54 40.83C182.534 41.3381 182.118 41.7455 181.61 41.7399 181.102 41.7344 180.695 41.3181 180.7 40.81 180.706 40.3059 181.116 39.9 181.62 39.9 182.128 39.9 182.54 40.3118 182.54 40.8199 182.54 40.8233 182.54 40.8266 182.54 40.83" fill="#FFFFFF"/><path d="M202.5 40.83C202.5 41.3436 202.084 41.76 201.57 41.76 201.056 41.76 200.64 41.3436 200.64 40.83 200.64 40.3164 201.056 39.9 201.57 39.9 202.084 39.9 202.5 40.3164 202.5 40.83" fill="#FFFFFF"/><path d="M222.45 40.83C222.397 41.3409 221.94 41.7119 221.429 41.6587 220.991 41.6132 220.646 41.2674 220.6 40.83 220.547 40.3191 220.918 39.8619 221.429 39.8087 221.94 39.7555 222.397 40.1265 222.45 40.6374 222.457 40.7014 222.457 40.766 222.45 40.83" fill="#FFFFFF"/><path d="M242.4 40.83C242.394 41.3381 241.978 41.7455 241.47 41.7399 240.962 41.7344 240.555 41.3181 240.56 40.81 240.566 40.3059 240.976 39.9 241.48 39.9 241.988 39.9 242.4 40.3118 242.4 40.8199 242.4 40.8233 242.4 40.8266 242.4 40.83" fill="#FFFFFF"/><path d="M262.35 40.83C262.344 41.3381 261.928 41.7455 261.42 41.7399 260.912 41.7344 260.505 41.3181 260.51 40.81 260.516 40.3059 260.926 39.9 261.43 39.9 261.938 39.9 262.35 40.3118 262.35 40.8199 262.35 40.8233 262.35 40.8266 262.35 40.83" fill="#FFFFFF"/><path d="M282.31 40.83C282.31 41.3436 281.894 41.76 281.38 41.76 280.866 41.76 280.45 41.3436 280.45 40.83 280.45 40.3164 280.866 39.9 281.38 39.9 281.894 39.9 282.31 40.3164 282.31 40.83" fill="#FFFFFF"/><path d="M302.26 40.83C302.207 41.3409 301.75 41.7119 301.239 41.6587 300.801 41.6132 300.456 41.2674 300.41 40.83 300.357 40.3191 300.728 39.8619 301.239 39.8087 301.75 39.7555 302.207 40.1265 302.26 40.6374 302.267 40.7014 302.267 40.766 302.26 40.83" fill="#FFFFFF"/><path d="M322.21 40.83C322.204 41.3381 321.788 41.7455 321.28 41.7399 320.772 41.7344 320.365 41.3181 320.37 40.81 320.376 40.3059 320.786 39.9 321.29 39.9 321.798 39.9 322.21 40.3118 322.21 40.8199 322.21 40.8233 322.21 40.8266 322.21 40.83" fill="#FFFFFF"/><path d="M342.16 40.83C342.154 41.3381 341.738 41.7455 341.23 41.7399 340.722 41.7344 340.315 41.3181 340.32 40.81 340.326 40.3059 340.736 39.9 341.24 39.9 341.748 39.9 342.16 40.3118 342.16 40.8199 342.16 40.8233 342.16 40.8266 342.16 40.83" fill="#FFFFFF"/><path d="M362.12 40.83C362.12 41.3436 361.704 41.76 361.19 41.76 360.676 41.76 360.26 41.3436 360.26 40.83 360.26 40.3164 360.676 39.9 361.19 39.9 361.704 39.9 362.12 40.3164 362.12 40.83" fill="#FFFFFF"/><path d="M382.07 40.83C382.07 41.3436 381.654 41.76 381.14 41.76 380.626 41.76 380.21 41.3436 380.21 40.83 380.21 40.3164 380.626 39.9 381.14 39.9 381.654 39.9 382.07 40.3164 382.07 40.83" fill="#FFFFFF"/><path d="M402 40.83C401.947 41.3409 401.49 41.7119 400.979 41.6587 400.541 41.6132 400.196 41.2674 400.15 40.83 400.097 40.3191 400.468 39.8619 400.979 39.8087 401.49 39.7555 401.947 40.1265 402 40.6374 402.007 40.7014 402.007 40.766 402 40.83" fill="#FFFFFF"/><path d="M422 40.83C421.994 41.3381 421.578 41.7455 421.07 41.7399 420.562 41.7344 420.155 41.3181 420.16 40.81 420.166 40.3059 420.576 39.9 421.08 39.9 421.588 39.9 422 40.3118 422 40.8199 422 40.8233 422 40.8266 422 40.83" fill="#FFFFFF"/><path d="M441.92 40.83C441.914 41.3381 441.498 41.7455 440.99 41.7399 440.482 41.7344 440.075 41.3181 440.08 40.81 440.086 40.3059 440.496 39.9 441 39.9 441.508 39.9 441.92 40.3118 441.92 40.8199 441.92 40.8233 441.92 40.8266 441.92 40.83" fill="#FFFFFF"/><path d="M62.83 20.88C62.8245 21.3881 62.4081 21.7955 61.9001 21.7899 61.392 21.7844 60.9846 21.3681 60.9901 20.86 60.9956 20.3559 61.4058 19.95 61.91 19.95 62.4181 19.95 62.83 20.3618 62.8301 20.8699 62.8301 20.8733 62.83 20.8766 62.83 20.88" fill="#FFFFFF"/><path d="M82.78 20.88C82.7745 21.3881 82.3581 21.7955 81.8501 21.7899 81.342 21.7844 80.9346 21.3681 80.9401 20.86 80.9456 20.3559 81.3558 19.95 81.86 19.95 82.3681 19.95 82.78 20.3618 82.7801 20.8699 82.7801 20.8733 82.78 20.8766 82.78 20.88" fill="#FFFFFF"/><path d="M102.74 20.88C102.74 21.3936 102.324 21.81 101.81 21.81 101.296 21.81 100.88 21.3936 100.88 20.88 100.88 20.3664 101.296 19.95 101.81 19.95 102.324 19.95 102.74 20.3664 102.74 20.88" fill="#FFFFFF"/><path d="M122.69 20.88C122.69 21.3936 122.274 21.81 121.76 21.81 121.246 21.81 120.83 21.3936 120.83 20.88 120.83 20.3664 121.246 19.95 121.76 19.95 122.274 19.95 122.69 20.3664 122.69 20.88" fill="#FFFFFF"/><path d="M142.64 20.88C142.634 21.3881 142.218 21.7955 141.71 21.7899 141.202 21.7844 140.795 21.3681 140.8 20.86 140.806 20.3559 141.216 19.95 141.72 19.95 142.228 19.95 142.64 20.3618 142.64 20.8699 142.64 20.8733 142.64 20.8766 142.64 20.88" fill="#FFFFFF"/><path d="M162.59 20.88C162.584 21.3881 162.168 21.7955 161.66 21.7899 161.152 21.7844 160.745 21.3681 160.75 20.86 160.756 20.3559 161.166 19.95 161.67 19.95 162.178 19.95 162.59 20.3618 162.59 20.8699 162.59 20.8733 162.59 20.8766 162.59 20.88" fill="#FFFFFF"/><path d="M182.54 20.88C182.534 21.3881 182.118 21.7955 181.61 21.7899 181.102 21.7844 180.695 21.3681 180.7 20.86 180.706 20.3559 181.116 19.95 181.62 19.95 182.128 19.95 182.54 20.3618 182.54 20.8699 182.54 20.8733 182.54 20.8766 182.54 20.88" fill="#FFFFFF"/><path d="M202.5 20.88C202.5 21.3936 202.084 21.81 201.57 21.81 201.056 21.81 200.64 21.3936 200.64 20.88 200.64 20.3664 201.056 19.95 201.57 19.95 202.084 19.95 202.5 20.3664 202.5 20.88" fill="#FFFFFF"/><path d="M222.45 20.88C222.397 21.3909 221.94 21.7619 221.429 21.7087 220.991 21.6631 220.646 21.3174 220.6 20.88 220.547 20.3691 220.918 19.9119 221.429 19.8587 221.94 19.8055 222.397 20.1765 222.45 20.6874 222.457 20.7514 222.457 20.816 222.45 20.88" fill="#FFFFFF"/><path d="M242.4 20.88C242.394 21.3881 241.978 21.7955 241.47 21.7899 240.962 21.7844 240.555 21.3681 240.56 20.86 240.566 20.3559 240.976 19.95 241.48 19.95 241.988 19.95 242.4 20.3618 242.4 20.8699 242.4 20.8733 242.4 20.8766 242.4 20.88" fill="#FFFFFF"/><path d="M262.35 20.88C262.344 21.3881 261.928 21.7955 261.42 21.7899 260.912 21.7844 260.505 21.3681 260.51 20.86 260.516 20.3559 260.926 19.95 261.43 19.95 261.938 19.95 262.35 20.3618 262.35 20.8699 262.35 20.8733 262.35 20.8766 262.35 20.88" fill="#FFFFFF"/><path d="M282.31 20.88C282.31 21.3936 281.894 21.81 281.38 21.81 280.866 21.81 280.45 21.3936 280.45 20.88 280.45 20.3664 280.866 19.95 281.38 19.95 281.894 19.95 282.31 20.3664 282.31 20.88" fill="#FFFFFF"/><path d="M302.26 20.88C302.207 21.3909 301.75 21.7619 301.239 21.7087 300.801 21.6631 300.456 21.3174 300.41 20.88 300.357 20.3691 300.728 19.9119 301.239 19.8587 301.75 19.8055 302.207 20.1765 302.26 20.6874 302.267 20.7514 302.267 20.816 302.26 20.88" fill="#FFFFFF"/><path d="M322.21 20.88C322.204 21.3881 321.788 21.7955 321.28 21.7899 320.772 21.7844 320.365 21.3681 320.37 20.86 320.376 20.3559 320.786 19.95 321.29 19.95 321.798 19.95 322.21 20.3618 322.21 20.8699 322.21 20.8733 322.21 20.8766 322.21 20.88" fill="#FFFFFF"/><path d="M342.16 20.88C342.154 21.3881 341.738 21.7955 341.23 21.7899 340.722 21.7844 340.315 21.3681 340.32 20.86 340.326 20.3559 340.736 19.95 341.24 19.95 341.748 19.95 342.16 20.3618 342.16 20.8699 342.16 20.8733 342.16 20.8766 342.16 20.88" fill="#FFFFFF"/><path d="M362.12 20.88C362.12 21.3936 361.704 21.81 361.19 21.81 360.676 21.81 360.26 21.3936 360.26 20.88 360.26 20.3664 360.676 19.95 361.19 19.95 361.704 19.95 362.12 20.3664 362.12 20.88" fill="#FFFFFF"/><path d="M382.07 20.88C382.07 21.3936 381.654 21.81 381.14 21.81 380.626 21.81 380.21 21.3936 380.21 20.88 380.21 20.3664 380.626 19.95 381.14 19.95 381.654 19.95 382.07 20.3664 382.07 20.88" fill="#FFFFFF"/><path d="M402 20.88C401.947 21.3909 401.49 21.7619 400.979 21.7087 400.541 21.6631 400.196 21.3174 400.15 20.88 400.097 20.3691 400.468 19.9119 400.979 19.8587 401.49 19.8055 401.947 20.1765 402 20.6874 402.007 20.7514 402.007 20.816 402 20.88" fill="#FFFFFF"/><path d="M422 20.88C421.994 21.3881 421.578 21.7955 421.07 21.7899 420.562 21.7844 420.155 21.3681 420.16 20.86 420.166 20.3559 420.576 19.95 421.08 19.95 421.588 19.95 422 20.3618 422 20.8699 422 20.8733 422 20.8766 422 20.88" fill="#FFFFFF"/><path d="M441.92 20.88C441.942 21.3876 441.548 21.817 441.041 21.8391 440.533 21.8612 440.104 21.4676 440.082 20.96 440.06 20.4524 440.453 20.023 440.961 20.0009 440.974 20.0003 440.987 20 441 20 441.508 20 441.92 20.4118 441.92 20.9199 441.92 20.9233 441.92 20.9266 441.92 20.93" fill="#FFFFFF"/><path d="M62.83 0.92C62.83 1.4281 62.4181 1.84 61.91 1.84 61.4019 1.84 60.99 1.4281 60.99 0.92 60.99 0.411898 61.4019 1.66893e-08 61.91 1.66893e-08 62.4158 0.00541057 62.8246 0.414156 62.83 0.92" fill="#FFFFFF"/><path d="M82.78 0.92C82.78 1.4281 82.3681 1.84 81.86 1.84 81.3519 1.84 80.94 1.4281 80.94 0.92 80.94 0.411898 81.3519 1.66893e-08 81.86 1.66893e-08 82.3658 0.00541057 82.7746 0.414156 82.78 0.92" fill="#FFFFFF"/><path d="M102.74 0.92C102.793 1.43086 102.422 1.88812 101.911 1.94131 101.4 1.9945 100.943 1.62348 100.89 1.11261 100.883 1.04858 100.883 0.984032 100.89 0.92 100.943 0.409137 101.4 0.0381181 101.911 0.0913069 102.349 0.13685 102.694 0.482575 102.74 0.92" fill="#FFFFFF"/><path d="M122.69 0.92C122.743 1.43086 122.372 1.88812 121.861 1.94131 121.35 1.9945 120.893 1.62348 120.84 1.11261 120.833 1.04858 120.833 0.984032 120.84 0.92 120.893 0.409137 121.35 0.0381181 121.861 0.0913069 122.299 0.13685 122.644 0.482575 122.69 0.92" fill="#FFFFFF"/><path d="M142.64 0.92C142.64 1.4281 142.228 1.84 141.72 1.84 141.212 1.84 140.8 1.4281 140.8 0.92 140.8 0.411898 141.212 1.66893e-08 141.72 1.66893e-08 142.226 0.00541057 142.635 0.414156 142.64 0.92" fill="#FFFFFF"/><path d="M162.59 0.92C162.59 1.4281 162.178 1.84 161.67 1.84 161.162 1.84 160.75 1.4281 160.75 0.92 160.75 0.411898 161.162 1.66893e-08 161.67 1.66893e-08 162.176 0.00541057 162.585 0.414156 162.59 0.92" fill="#FFFFFF"/><path d="M182.54 0.92C182.54 1.4281 182.128 1.84 181.62 1.84 181.112 1.84 180.7 1.4281 180.7 0.92 180.7 0.411898 181.112 1.66893e-08 181.62 1.66893e-08 182.126 0.00541057 182.535 0.414156 182.54 0.92" fill="#FFFFFF"/><path d="M202.5 0.92C202.553 1.43086 202.182 1.88812 201.671 1.94131 201.16 1.9945 200.703 1.62348 200.65 1.11261 200.643 1.04858 200.643 0.984032 200.65 0.92 200.703 0.409137 201.16 0.0381181 201.671 0.0913069 202.109 0.13685 202.454 0.482575 202.5 0.92" fill="#FFFFFF"/><path d="M222.45 0.92C222.455 1.4336 222.044 1.8544 221.53 1.85989 221.016 1.86539 220.596 1.45349 220.59 0.939894 220.585 0.426298 220.997 0.00549352 221.51 5.19288e-08 221.517-7.08741e-05 221.523-7.08741e-05 221.53 5.19288e-08 222.036 0.00541061 222.445 0.414156 222.45 0.92" fill="#FFFFFF"/><path d="M242.4 0.92C242.4 1.4281 241.988 1.84 241.48 1.84 240.972 1.84 240.56 1.4281 240.56 0.92 240.56 0.411898 240.972 1.66893e-08 241.48 1.66893e-08 241.986 0.00541057 242.395 0.414156 242.4 0.92" fill="#FFFFFF"/><path d="M262.35 0.92C262.35 1.4281 261.938 1.84 261.43 1.84 260.922 1.84 260.51 1.4281 260.51 0.92 260.51 0.411898 260.922 1.66893e-08 261.43 1.66893e-08 261.936 0.00541057 262.345 0.414156 262.35 0.92" fill="#FFFFFF"/><path d="M282.31 0.92C282.363 1.43086 281.992 1.88812 281.481 1.94131 280.97 1.9945 280.513 1.62348 280.46 1.11261 280.453 1.04858 280.453 0.984032 280.46 0.92 280.513 0.409137 280.97 0.0381181 281.481 0.0913069 281.919 0.13685 282.264 0.482575 282.31 0.92" fill="#FFFFFF"/><path d="M302.26 0.92C302.266 1.4336 301.854 1.8544 301.34 1.85989 300.826 1.86539 300.406 1.45349 300.4 0.939894 300.395 0.426298 300.807 0.00549352 301.32 5.19288e-08 301.327-7.08741e-05 301.333-7.08741e-05 301.34 5.19288e-08 301.846 0.00541061 302.255 0.414156 302.26 0.92" fill="#FFFFFF"/><path d="M322.21 0.92C322.21 1.4281 321.798 1.84 321.29 1.84 320.782 1.84 320.37 1.4281 320.37 0.92 320.37 0.411898 320.782 1.66893e-08 321.29 1.66893e-08 321.796 0.00541057 322.205 0.414156 322.21 0.92" fill="#FFFFFF"/><path d="M342.16 0.92C342.16 1.4281 341.748 1.84 341.24 1.84 340.732 1.84 340.32 1.4281 340.32 0.92 340.32 0.411898 340.732 1.66893e-08 341.24 1.66893e-08 341.746 0.00541057 342.155 0.414156 342.16 0.92" fill="#FFFFFF"/><path d="M362.12 0.92C362.173 1.43086 361.802 1.88812 361.291 1.94131 360.78 1.9945 360.323 1.62348 360.27 1.11261 360.263 1.04858 360.263 0.984032 360.27 0.92 360.323 0.409137 360.78 0.0381181 361.291 0.0913069 361.729 0.13685 362.074 0.482575 362.12 0.92" fill="#FFFFFF"/><path d="M382.07 0.92C382.123 1.43086 381.752 1.88812 381.241 1.94131 380.73 1.9945 380.273 1.62348 380.22 1.11261 380.213 1.04858 380.213 0.984032 380.22 0.92 380.273 0.409137 380.73 0.0381181 381.241 0.0913069 381.679 0.13685 382.024 0.482575 382.07 0.92" fill="#FFFFFF"/><path d="M402 0.92C402.005 1.4336 401.593 1.85421 401.08 1.85947 400.566 1.86473 400.145 1.45263 400.14 0.939035 400.135 0.425437 400.547 0.00482278 401.061-0.000433634 401.074-0.000568299 401.087-0.000423691 401.1 8.9475e-08 401.606 0.00541065 402.015 0.414156 402.02 0.92" fill="#FFFFFF"/><path d="M422 0.92C422 1.4281 421.588 1.84 421.08 1.84 420.572 1.84 420.16 1.4281 420.16 0.92 420.16 0.411898 420.572 1.66893e-08 421.08 1.66893e-08 421.586 0.00541057 421.995 0.414156 422 0.92" fill="#FFFFFF"/><path d="M441.92 0.92C441.92 1.4281 441.508 1.84 441 1.84 440.492 1.84 440.08 1.4281 440.08 0.92 440.08 0.411898 440.492 1.66893e-08 441 1.66893e-08 441.506 0.00541057 441.915 0.414156 441.92 0.92" fill="#FFFFFF"/><path d="M1.85 80.73C1.85552 81.2436 1.44365 81.6644 0.930054 81.67 0.416459 81.6755-0.00436962 81.2636-0.00989246 80.75-0.0154153 80.2364 0.396459 79.8156 0.910054 79.8101 0.913369 79.81 0.916685 79.81 0.92 79.81 1.42974 79.81 1.84452 80.2203 1.85 80.73" fill="#FFFFFF"/><path d="M21.8 80.73C21.8055 81.2436 21.3936 81.6644 20.8801 81.67 20.3665 81.6755 19.9456 81.2636 19.9401 80.75 19.9346 80.2364 20.3465 79.8156 20.8601 79.8101 20.8634 79.81 20.8667 79.81 20.87 79.81 21.3797 79.81 21.7945 80.2203 21.8 80.73" fill="#FFFFFF"/><path d="M41.75 80.73C41.7555 81.2436 41.3436 81.6644 40.83 81.6699 40.3164 81.6754 39.8956 81.2635 39.8901 80.7499 39.8846 80.2363 40.2965 79.8155 40.8101 79.81 40.8167 79.8099 40.8234 79.8099 40.83 79.81 41.3381 79.81 41.75 80.2219 41.75 80.73" fill="#FFFFFF"/><path d="M1.85 60.78C1.85552 61.2936 1.44365 61.7144 0.930054 61.7199 0.416459 61.7255-0.00436962 61.3136-0.00989246 60.8-0.0154153 60.2864 0.396459 59.8656 0.910054 59.8601 0.913369 59.86 0.916685 59.86 0.92 59.86 1.42974 59.86 1.84452 60.2703 1.85 60.78" fill="#FFFFFF"/><path d="M21.8 60.78C21.8055 61.2936 21.3936 61.7144 20.8801 61.7199 20.3665 61.7255 19.9456 61.3136 19.9401 60.8 19.9346 60.2864 20.3465 59.8656 20.8601 59.8601 20.8634 59.86 20.8667 59.86 20.87 59.86 21.3797 59.86 21.7945 60.2703 21.8 60.78" fill="#FFFFFF"/><path d="M41.75 60.78C41.7555 61.2936 41.3436 61.7144 40.83 61.7199 40.3164 61.7254 39.8956 61.3135 39.8901 60.7999 39.8846 60.2863 40.2965 59.8655 40.8101 59.86 40.8167 59.8599 40.8234 59.8599 40.83 59.86 41.3381 59.86 41.75 60.2719 41.75 60.78" fill="#FFFFFF"/><path d="M1.85 40.83C1.85 41.3436 1.43362 41.76 0.92 41.76 0.406375 41.76-0.00999998 41.3436-0.00999998 40.83-0.00999998 40.3164 0.406375 39.9 0.92 39.9 1.43362 39.9 1.85 40.3164 1.85 40.83" fill="#FFFFFF"/><path d="M21.8 40.83C21.8 41.3436 21.3836 41.76 20.87 41.76 20.3564 41.76 19.94 41.3436 19.94 40.83 19.94 40.3164 20.3564 39.9 20.87 39.9 21.3836 39.9 21.8 40.3164 21.8 40.83" fill="#FFFFFF"/><path d="M41.75 40.83C41.6968 41.3409 41.2396 41.7119 40.7287 41.6587 40.2913 41.6132 39.9455 41.2674 39.9 40.83 39.8468 40.3191 40.2178 39.8619 40.7287 39.8087 41.2396 39.7555 41.6968 40.1265 41.75 40.6374 41.7567 40.7014 41.7567 40.766 41.75 40.83" fill="#FFFFFF"/><path d="M1.85 20.88C1.87761 21.3929 1.48423 21.831 0.971344 21.8587 0.458462 21.8863 0.0203037 21.4929-0.00730997 20.98-0.0349237 20.4671 0.358464 20.029 0.871346 20.0013 0.88755 20.0005 0.903773 20 0.92 20 1.43362 20 1.85 20.4164 1.85 20.93" fill="#FFFFFF"/><path d="M21.8 20.88C21.8 21.3936 21.3836 21.81 20.87 21.81 20.3564 21.81 19.94 21.3936 19.94 20.88 19.94 20.3664 20.3564 19.95 20.87 19.95 21.3836 19.95 21.8 20.3664 21.8 20.88" fill="#FFFFFF"/><path d="M41.75 20.88C41.6968 21.3909 41.2396 21.7619 40.7287 21.7087 40.2913 21.6631 39.9455 21.3174 39.9 20.88 39.8468 20.3691 40.2178 19.9119 40.7287 19.8587 41.2396 19.8055 41.6968 20.1765 41.75 20.6874 41.7567 20.7514 41.7567 20.816 41.75 20.88" fill="#FFFFFF"/><path d="M1.85 0.92C1.85 1.43362 1.43362 1.85 0.92 1.85 0.406375 1.85-0.00999998 1.43362-0.00999998 0.92-0.00999998 0.406375 0.406375-0.00999998 0.92-0.00999998 1.43362-0.00999998 1.85 0.406375 1.85 0.92" fill="#FFFFFF"/><path d="M21.8 0.92C21.9294 1.41706 21.6314 1.9249 21.1343 2.05431 20.6372 2.18371 20.1294 1.88567 20 1.38861 19.96 1.23497 19.96 1.07364 20 0.92 20.0532 0.409137 20.5104 0.0381179 21.0213 0.0913067 21.4587 0.136849 21.8045 0.482575 21.85 0.92" fill="#FFFFFF"/><path d="M41.75 0.92C41.7555 1.4336 41.3436 1.8544 40.83 1.85989 40.3164 1.86539 39.8956 1.45349 39.8901 0.939894 39.8846 0.426298 40.2965 0.00549352 40.8101 5.19288e-08 40.8167-7.08741e-05 40.8234-7.08741e-05 40.83 5.19288e-08 41.3358 0.00541061 41.7446 0.414156 41.75 0.92" fill="#FFFFFF"/></svg>